# xmcd
#
# Track frame offsets: 
#        150
#        21837
#        37738
#        53114
#        94711
#        113311
#        139725
#        163275
#        193053
#        230329
#        257328
#        276914
#        297566
#        309596
#        340026
#
# Disc length: 4716 seconds
#
# Revision: 0
# Processed by: cddbd v1.5.1PL2 Copyright (c) Steve Scherf et al.
# Submitted via: ExactAudioCopy v0.95b4
#
DISCID=cc126a0f
DTITLE=Various Artist - Song of Colour
DYEAR=1900
DGENRE=Country
TTITLE0=姑苏行
TTITLE1=小放牛
TTITLE2=梅花三弄
TTITLE3=梅花引
TTITLE4=鹧鸪飞
TTITLE5=故乡行
TTITLE6=朝元歌
TTITLE7=寒江残雪
TTITLE8=琅琊神韵
TTITLE9=牧笛
TTITLE10=五供羊
TTITLE11=草原牧笛
TTITLE12=苗岭的早晨
TTITLE13=梁祝
TTITLE14=喜相逢
EXTD=
EXTT0=
EXTT1=
EXTT2=
EXTT3=
EXTT4=
EXTT5=
EXTT6=
EXTT7=
EXTT8=
EXTT9=
EXTT10=
EXTT11=
EXTT12=
EXTT13=
EXTT14=
PLAYORDER=
